<svg xmlns="http://www.w3.org/2000/svg" width="64" height="54.054" viewBox="0 0 64 54.054">
  <g id="blood_preasure" transform="translate(-3571.524 -1004.115)">
    <g id="Group_9" data-name="Group 9" transform="translate(3571.524 1004.115)">
      <path id="Path_30" data-name="Path 30" d="M3595.891,1030.411c-.677-1.449-1.281-2.743-1.884-4.037-.887-1.908-1.769-3.818-2.66-5.724a1.553,1.553,0,0,0-2.7-.6q-2.715,2.267-5.417,4.551a1.127,1.127,0,0,1-.787.291q-4.477-.012-8.955.006a.59.59,0,0,1-.66-.4,14.286,14.286,0,0,1,3.154-16.345,14.576,14.576,0,0,1,19.839-.277c.423.389.618.423,1.064.013a14.467,14.467,0,0,1,23.026,16.538.5.5,0,0,1-.507.352,17.649,17.649,0,0,0-7.557,1.979c-.406.212-.449-.068-.574-.3q-3.434-6.246-6.866-12.494a1.622,1.622,0,0,0-1.324-1.009,1.53,1.53,0,0,0-1.641,1.248q-1.472,4.284-2.93,8.573C3597.658,1025.262,3596.806,1027.743,3595.891,1030.411Z" transform="translate(-3571.524 -1004.115)" fill="#de4669"/>
      <path id="Path_31" data-name="Path 31" d="M3580.691,1056.4c2.9,0,5.67-.012,8.444.009a2.358,2.358,0,0,0,1.655-.586c1.393-1.2,2.811-2.363,4.22-3.539.126-.1.261-.2.437-.333l1.8,3.873q1.741,3.739,3.482,7.478c.4.858.862,1.186,1.607,1.132.811-.059,1.176-.6,1.415-1.3q2.684-7.863,5.38-15.722c.066-.195.134-.389.2-.579.227-.016.236.173.3.282,1.751,3.175,3.49,6.356,5.25,9.526a.511.511,0,0,1-.147.775,17.691,17.691,0,0,0-6.278,10.993,16.94,16.94,0,0,0-.183,3.681.758.758,0,0,1-.385.763c-1.556,1.051-3.157,2.023-4.8,2.934a1.138,1.138,0,0,1-1.25-.018,62.746,62.746,0,0,1-14.262-10.813,46.21,46.21,0,0,1-6.292-7.606C3581.105,1057.075,3580.935,1056.793,3580.691,1056.4Z" transform="translate(-3577.646 -1032.641)" fill="#de4669"/>
      <path id="Path_32" data-name="Path 32" d="M3686.232,1073.515a15.5,15.5,0,1,1-15.567,15.435A15.53,15.53,0,0,1,3686.232,1073.515Zm-.019,3.008a12.491,12.491,0,1,0,12.506,12.487A12.507,12.507,0,0,0,3686.213,1076.523Z" transform="translate(-3637.729 -1050.459)" fill="#3a4754"/>
      <path id="Path_33" data-name="Path 33" d="M3706.073,1105.382a3.35,3.35,0,0,1-2.965,3.389,3.246,3.246,0,0,1-3.586-2.454,11.062,11.062,0,0,0-3.648-6.174c-.636-.575-.641-1.05-.126-1.609a1,1,0,0,1,1.615-.046,12.8,12.8,0,0,0,3.649,2.9,13.2,13.2,0,0,0,2.493.787A3.308,3.308,0,0,1,3706.073,1105.382Z" transform="translate(-3654.233 -1066.878)" fill="#de4669"/>
      <path id="Path_34" data-name="Path 34" d="M3716.321,1088.144c0,.375-.023.752.007,1.124.031.391-.069.547-.506.548-1.517.005-1.517.023-1.515-1.474,0-.167-.011-.334,0-.5.036-.449-.208-1.139.1-1.294a4.243,4.243,0,0,1,1.648-.1c.293-.009.265.2.266.384C3716.322,1087.269,3716.321,1087.707,3716.321,1088.144Z" transform="translate(-3666.835 -1059.077)" fill="#3a4754"/>
      <path id="Path_35" data-name="Path 35" d="M3716.43,1145.4c0,.063,0,.125,0,.187-.005,1.605-.08,1.663-1.708,1.455-.25-.032-.311-.131-.309-.353.006-.894.007-1.787,0-2.681,0-.243.1-.343.333-.324a.427.427,0,0,0,.063,0C3716.431,1143.576,3716.431,1143.576,3716.43,1145.4Z" transform="translate(-3666.943 -1097.293)" fill="#3a4754"/>
      <path id="Path_36" data-name="Path 36" d="M3685.344,1117.139h.125c1.667,0,1.659,0,1.553,1.657-.017.271-.091.358-.36.354q-1.311-.021-2.623,0c-.285,0-.387-.07-.4-.38-.087-1.632-.1-1.631,1.521-1.631Z" transform="translate(-3646.37 -1079.591)" fill="#3a4754"/>
      <path id="Path_37" data-name="Path 37" d="M3742.507,1119.121a6.6,6.6,0,0,1-1.246-.014c-.913-.181-.217-.9-.384-1.351-.09-.241-.19-.679.406-.65.83.041,1.664.027,2.5,0,.361-.011.447.113.454.46.029,1.551.04,1.551-1.476,1.553Z" transform="translate(-3684.551 -1079.568)" fill="#3a4754"/>
    </g>
  </g>
</svg>
