<svg xmlns="http://www.w3.org/2000/svg" width="36" height="37.722" viewBox="0 0 36 37.722">
  <g id="Group_30" data-name="Group 30" transform="translate(-2485.677 -969.682)">
    <path id="Path_89" data-name="Path 89" d="M2810.147,1120.315a6.772,6.772,0,0,0-.984-1.721.672.672,0,0,0-.06-.155.672.672,0,0,1,.06.155A6.772,6.772,0,0,1,2810.147,1120.315Z" transform="translate(-296.13 -136.203)" fill="none"/>
    <path id="Path_90" data-name="Path 90" d="M2821.48,1140.66c.1.244.193.493.281.743C2821.673,1141.153,2821.581,1140.9,2821.48,1140.66Z" transform="translate(-307.462 -156.548)" fill="none"/>
    <path id="Path_91" data-name="Path 91" d="M2520.493,1196.132a13.177,13.177,0,0,1-1.28-2.022,2.249,2.249,0,0,1-.22-.948h-4.065a11.3,11.3,0,0,1-8.4,10.873,11.619,11.619,0,0,1-2.142.336,11.125,11.125,0,0,1-5.486-1.026,3.927,3.927,0,0,1-.864-.5,9.968,9.968,0,0,1-2.785-2.258,10.866,10.866,0,0,1-2.413-4.514,12.2,12.2,0,0,1-.391-2.908h-4.088a2.239,2.239,0,0,1-.216.938,13.178,13.178,0,0,1-1.277,2.024,7.993,7.993,0,0,0-1.062,1.807,1.465,1.465,0,0,0,.577,1.877,5.45,5.45,0,0,0,1.2.606c.861.336,1.755.578,2.609.936a2.437,2.437,0,0,1,1.553,2.243c.1,1.105-.017,2.216.138,3.318.2,1.452.906,1.981,2.346,1.726.055-.01.108-.03.163-.041.991-.2,1.934-.566,2.907-.83a2.521,2.521,0,0,1,2.957,1.006c.273.374.56.736.842,1.1a9.076,9.076,0,0,0,1.523,1.733,1.558,1.558,0,0,0,2.08.034,7.072,7.072,0,0,0,1.331-1.453,22.01,22.01,0,0,1,1.461-1.846,2.212,2.212,0,0,1,2.147-.656,23.035,23.035,0,0,1,2.385.667,5.912,5.912,0,0,0,1.854.329,1.4,1.4,0,0,0,1.424-1.026,4.534,4.534,0,0,0,.17-.734,18.931,18.931,0,0,0,.095-2.6c.06-2.033.463-2.591,2.378-3.264.621-.218,1.244-.429,1.864-.651a4.885,4.885,0,0,0,1.091-.538,1.506,1.506,0,0,0,.63-2A8.361,8.361,0,0,0,2520.493,1196.132Z" transform="translate(0 -204.617)" fill="#fe844e"/>
    <path id="Path_92" data-name="Path 92" d="M2493.976,982.9a10.8,10.8,0,0,1,7.033-5.258,10.952,10.952,0,0,1,9.147,1.736,11.787,11.787,0,0,1,2.816,2.854.648.648,0,0,1,.06.155,6.772,6.772,0,0,1,.984,1.721c.1.244.193.493.281.743q.066.188.129.376a9.876,9.876,0,0,1,.5,3.294c0,.006,0,.011,0,.017h4.065a2.257,2.257,0,0,1,.223-.958,13.564,13.564,0,0,1,1.258-1.987,8.522,8.522,0,0,0,1.052-1.765,1.508,1.508,0,0,0-.639-2,5.99,5.99,0,0,0-1.288-.612c-.79-.284-1.585-.558-2.372-.85a2.4,2.4,0,0,1-1.617-2.281c-.093-1.092.012-2.187-.132-3.277-.185-1.4-.762-1.89-2.161-1.766a2.035,2.035,0,0,0-.372.065q-1.455.409-2.909.825a2.48,2.48,0,0,1-2.923-.989c-.357-.486-.725-.964-1.093-1.441a7.1,7.1,0,0,0-1.332-1.452,1.557,1.557,0,0,0-2.048.019,7.321,7.321,0,0,0-1.326,1.458,19.9,19.9,0,0,1-1.463,1.844,2.195,2.195,0,0,1-2.112.644,15.372,15.372,0,0,1-1.663-.442,9.007,9.007,0,0,0-2.566-.56,1.433,1.433,0,0,0-1.536,1.286,6.271,6.271,0,0,0-.172,1.458c-.008.813,0,1.626-.075,2.438a2.313,2.313,0,0,1-1.4,2.081c-.59.265-1.2.471-1.81.675a8.434,8.434,0,0,0-2.076.9,1.486,1.486,0,0,0-.622,1.967,8.354,8.354,0,0,0,1.05,1.766,12.882,12.882,0,0,1,1.277,2.024,2.238,2.238,0,0,1,.211.931h4.088A10.811,10.811,0,0,1,2493.976,982.9Z" transform="translate(0 0)" fill="#fe844e"/>
    <path id="Path_93" data-name="Path 93" d="M2586.494,1068.73a11.746,11.746,0,0,0-.084-3.21c-.022-.131-.057-.283.083-.388a.672.672,0,0,0-.06-.155,11.79,11.79,0,0,0-2.817-2.854,10.952,10.952,0,0,0-9.147-1.736,11.239,11.239,0,0,0-8.561,10.9H2586A14.728,14.728,0,0,0,2586.494,1068.73Zm-13.066,1.647a1.486,1.486,0,1,1,1.5-1.482A1.494,1.494,0,0,1,2573.428,1070.377Zm7.406,0a1.485,1.485,0,1,1,1.511-1.473A1.493,1.493,0,0,1,2580.833,1070.376Z" transform="translate(-73.46 -82.741)" fill="#fee741"/>
    <path id="Path_94" data-name="Path 94" d="M2572.055,1202.849a13.557,13.557,0,0,0,13.621-8.713c.125-.323.233-.648.328-.976h-20.09a12.2,12.2,0,0,0,.391,2.908,10.869,10.869,0,0,0,2.413,4.514,9.968,9.968,0,0,0,2.785,2.258C2571.688,1202.65,2571.872,1202.84,2572.055,1202.849Zm2.074-6.9c.228-.308.474-.167.729.005a4.261,4.261,0,0,0,4.573.009c.047-.031.091-.066.137-.1a.4.4,0,0,1,.617.109.391.391,0,0,1-.136.581,4.652,4.652,0,0,1-2.773.9,4.911,4.911,0,0,1-2.887-.8C2574.135,1196.493,2573.874,1196.3,2574.129,1195.952Z" transform="translate(-73.465 -204.617)" fill="#fee741"/>
    <path id="Path_95" data-name="Path 95" d="M2646.306,1194.137a13.557,13.557,0,0,1-13.621,8.713c-.183-.009-.367-.2-.552-.008a3.934,3.934,0,0,0,.864.5,11.125,11.125,0,0,0,5.486,1.026,11.622,11.622,0,0,0,2.142-.336,11.3,11.3,0,0,0,8.4-10.873h-2.39C2646.539,1193.489,2646.431,1193.814,2646.306,1194.137Z" transform="translate(-134.096 -204.617)" fill="#fed43f"/>
    <path id="Path_96" data-name="Path 96" d="M2805.848,1123.112q-.063-.189-.129-.376c-.088-.25-.18-.5-.281-.743a6.775,6.775,0,0,0-.984-1.721c-.14.1-.1.257-.083.388a11.755,11.755,0,0,1,.084,3.21,14.75,14.75,0,0,1-.5,2.554h2.39c0-.006,0-.012,0-.017A9.876,9.876,0,0,0,2805.848,1123.112Z" transform="translate(-291.421 -137.88)" fill="#fed43f"/>
    <path id="Path_97" data-name="Path 97" d="M2638.747,1147.186a1.486,1.486,0,1,0,1.5,1.49A1.5,1.5,0,0,0,2638.747,1147.186Z" transform="translate(-138.775 -162.523)" fill="#434544"/>
    <path id="Path_98" data-name="Path 98" d="M2726.6,1147.2a1.485,1.485,0,1,0,1.49,1.5A1.5,1.5,0,0,0,2726.6,1147.2Z" transform="translate(-219.211 -162.535)" fill="#434544"/>
    <path id="Path_99" data-name="Path 99" d="M2662.378,1224.959a4.913,4.913,0,0,0,2.888.8,4.652,4.652,0,0,0,2.773-.9.392.392,0,0,0,.136-.582.4.4,0,0,0-.617-.109c-.047.031-.091.066-.138.1a4.26,4.26,0,0,1-4.572-.009c-.254-.172-.5-.313-.729-.005C2661.865,1224.59,2662.126,1224.787,2662.378,1224.959Z" transform="translate(-161.456 -232.912)" fill="#454744"/>
  </g>
</svg>
