<svg xmlns="http://www.w3.org/2000/svg" width="56" height="71.319" viewBox="0 0 56 71.319">
  <g id="oxygenation" transform="translate(-3357.737 -1097.693)">
    <g id="Group_10" data-name="Group 10" transform="translate(3357.737 1097.693)">
      <path id="Path_38" data-name="Path 38" d="M3385.042,1097.693c.719.136,1.443.251,2.157.413,4.475,1.02,6.925,3.807,7.482,8.351a17.822,17.822,0,0,1-1.094,8.112,11.847,11.847,0,0,0-.875,5.23c.305,2.731.5,5.494,1.863,7.983a2.322,2.322,0,0,0,1.033.981,47.046,47.046,0,0,0,7.374,3.063,11.045,11.045,0,0,1,4.175,2.294,7.856,7.856,0,0,1,2.387,5.746,37.491,37.491,0,0,1-.354,6.511,24.621,24.621,0,0,0,.057,6.231c.277,2.109.486,4.223.964,6.3a51.471,51.471,0,0,0,2.648,7.085c.295.754.528,1.533.8,2.3.163.469.124.726-.491.722q-4.8-.031-9.609,0c-.5,0-.6-.221-.694-.645-.384-1.835-.4-3.724-.828-5.551-.095-.4-.208-.8-.347-1.333a19.311,19.311,0,0,0-.46,3.4,12.046,12.046,0,0,0-.045,3.53c.1.445-.092.6-.559.6q-14.866-.017-29.733,0c-.505,0-.648-.147-.562-.647a15.382,15.382,0,0,0-.111-4.083,24.618,24.618,0,0,0-.372-2.535,7.417,7.417,0,0,0-.662,2.544c-.1,1.434-.381,2.84-.573,4.259-.048.356-.228.457-.559.456-3.273-.007-6.546-.012-9.819,0-.65,0-.5-.357-.4-.73a42.5,42.5,0,0,1,2.14-5.5,29.343,29.343,0,0,0,2.1-8.806,37.3,37.3,0,0,0,.393-4.767c-.047-1.759-.3-3.5-.443-5.253-.2-2.564-.366-5.151.7-7.6a7.74,7.74,0,0,1,4.694-4.1,70.8,70.8,0,0,0,8.211-3.4,6.484,6.484,0,0,0,3.616-4.087,1.344,1.344,0,0,0,.025-.884c-.151-.37-.341-.592-.842-.485a7.66,7.66,0,0,1-3.239.1c-1.053-.227-1.312-.515-1.408-1.578-.064-.718.174-1.508-.54-2.051.325-.778-.145-1.547-.029-2.317.057-.383.313-.728.245-1.141a7.018,7.018,0,0,1,4.476-1.407,22.993,22.993,0,0,1,2.822.278,2.541,2.541,0,0,1,2.34,1.371c.063.142.2.294.06.448s-.308.042-.439-.036a1.736,1.736,0,0,0-1.466-.262,8.779,8.779,0,0,1-3.029.252,3.672,3.672,0,0,0-2.155.647c-.854.593-.865.576-1.406-.281-.014-.021-.083-.007-.165-.01-.077.28-.15.569-.239.854-.058.19-.426.377-.261.5.5.376.4,1.008.759,1.54.19-.574.482-.543.843-.256a.5.5,0,0,0,.64.075c.1-.072.177-.156.143-.285-.076-.3-.35-.25-.564-.308-.066-.018-.129-.052-.2-.073-.174-.054-.411-.072-.406-.3.008-.282.266-.27.471-.288a9.006,9.006,0,0,0,2.559-.578,7.775,7.775,0,0,1,3.423-.384c.818.053,1.028.323,1.009,1.163a10.735,10.735,0,0,1-.246,3.1c-.056.177-.294.821.432.521.185-.077.225.108.224.25a2.461,2.461,0,0,1-.08.965,5.55,5.55,0,0,0,.292,4.824,17.81,17.81,0,0,1,1.512,7.265,4.109,4.109,0,0,1-1.926,3.683,2.722,2.722,0,0,1-.187-1.438c.162-1.051.106-2.119.335-3.167a2,2,0,0,0-.72-1.864c-.477-.461-1.035-.284-1.565-.075a9.008,9.008,0,0,0-3.238,2.1,21.89,21.89,0,0,0-5.128,9.271,40.134,40.134,0,0,0-1.032,6,23.076,23.076,0,0,0-.1,6.086c.2,1.544.971,2.006,2.279,1.213a26.365,26.365,0,0,1,6.1-2.63,4.1,4.1,0,0,0,2.915-2.465,11.65,11.65,0,0,0,.674-3.664c.069-1.725-.4-3.405-.342-5.163a3.986,3.986,0,0,1,1.678-3.249,4.611,4.611,0,0,0,.477-.4.871.871,0,0,1,1.348-.086c.688.62,1.34,1.281,2,1.928a.366.366,0,0,1,.122.241c-.113,1.295.315,2.591.066,3.873a12.548,12.548,0,0,0-.049,5.087c.323,1.505.858,2.854,2.394,3.518a13.794,13.794,0,0,0,1.755.656,18.368,18.368,0,0,1,4.646,1.991,4.766,4.766,0,0,0,1.235.628,1.083,1.083,0,0,0,1.52-.772,4.663,4.663,0,0,0,.3-1.63c-.04-1.411.037-2.821-.121-4.235-.206-1.86-.453-3.715-.808-5.547a23.242,23.242,0,0,0-4.45-9.557,9.03,9.03,0,0,0-4.554-3.289,1.277,1.277,0,0,0-1.65.615,3.354,3.354,0,0,0-.206,2.342,8.609,8.609,0,0,1-.061,3.866,4.244,4.244,0,0,0-.539-.714,3.361,3.361,0,0,1-1.287-3.052,23.3,23.3,0,0,0-.491-5.372,37.7,37.7,0,0,1-.731-4.439,21.189,21.189,0,0,0-.53-4.257,13.419,13.419,0,0,1-.225-6.708,2.436,2.436,0,0,0-1.145-3,3.09,3.09,0,0,1-1.438-1.624,1.5,1.5,0,0,0-1.18-.874,15.869,15.869,0,0,0-4.01-.033,3.006,3.006,0,0,0-3.207,2.227,37.6,37.6,0,0,1-1.7,3.953c-.711-.267-.845-.634-.511-1.407a16.68,16.68,0,0,0,1.2-2.948,1.758,1.758,0,0,0,.028-.961,8.55,8.55,0,0,1,.466-6.271,9.869,9.869,0,0,1,4.191-5.261,10.793,10.793,0,0,1,3.854-1.281c.155-.022.331.022.438-.144Zm.157,58.5a9.512,9.512,0,0,0-2.318.229,36.72,36.72,0,0,0-6.983,2.255,13.232,13.232,0,0,0-3.021,1.693c-.272.2-.586.48-.455.864.139.412.559.265.854.235a14.071,14.071,0,0,0,3.259-.619c4.39-1.546,8.846-1.407,13.346-.627,2.165.374,4.261,1.036,6.414,1.454a4.346,4.346,0,0,0,1.981.09c.373-.1.752-.209.811-.642.056-.408-.285-.6-.588-.777a3.66,3.66,0,0,0-.433-.223,52.021,52.021,0,0,0-7.221-2.849A19.956,19.956,0,0,0,3385.2,1156.194Zm-1.975-46.135c.036,1.177.518,1.862,1.444,2.069a1.061,1.061,0,0,0,1.359-.611,1.081,1.081,0,0,0-.588-1.429,2.489,2.489,0,0,1-.828-.572.879.879,0,0,0-.989-.317C3383.2,1109.358,3383.209,1109.7,3383.224,1110.059Zm-8.557-.677c.466-.054.83-.087,1.192-.14.433-.062.742-.241.688-.758s-.433-.634-.839-.6a1.927,1.927,0,0,0-1.316.675c-.164.185-.292.372-.167.615A.434.434,0,0,0,3374.667,1109.382Z" transform="translate(-3357.737 -1097.693)" fill="#eeba98"/>
      <path id="Path_39" data-name="Path 39" d="M3376.559,1120.022a37.589,37.589,0,0,0,1.7-3.953,3.006,3.006,0,0,1,3.207-2.227,15.858,15.858,0,0,1,4.01.033,1.5,1.5,0,0,1,1.18.874,3.084,3.084,0,0,0,1.438,1.624,2.436,2.436,0,0,1,1.145,3,13.415,13.415,0,0,0,.225,6.708,21.192,21.192,0,0,1,.53,4.257,37.544,37.544,0,0,0,.731,4.439,23.32,23.32,0,0,1,.491,5.372,3.361,3.361,0,0,0,1.287,3.052,4.222,4.222,0,0,1,.54.714,8.61,8.61,0,0,0,.06-3.866,3.356,3.356,0,0,1,.205-2.342,1.278,1.278,0,0,1,1.651-.615,9.027,9.027,0,0,1,4.553,3.289,23.234,23.234,0,0,1,4.45,9.557c.355,1.833.6,3.688.809,5.548.157,1.414.082,2.824.121,4.235a4.651,4.651,0,0,1-.3,1.63,1.083,1.083,0,0,1-1.52.773,4.764,4.764,0,0,1-1.235-.628,18.385,18.385,0,0,0-4.646-1.991,13.758,13.758,0,0,1-1.755-.656c-1.536-.663-2.071-2.012-2.394-3.518a12.547,12.547,0,0,1,.049-5.087c.249-1.282-.179-2.578-.066-3.873a.365.365,0,0,0-.122-.241c-.663-.648-1.315-1.308-2-1.928a.871.871,0,0,0-1.349.086,4.649,4.649,0,0,1-.476.4,3.985,3.985,0,0,0-1.678,3.249c-.057,1.758.41,3.438.342,5.163a11.651,11.651,0,0,1-.675,3.664,4.1,4.1,0,0,1-2.914,2.465,26.367,26.367,0,0,0-6.1,2.63c-1.308.793-2.078.331-2.279-1.213a23.108,23.108,0,0,1,.1-6.086,40.2,40.2,0,0,1,1.032-6,21.89,21.89,0,0,1,5.129-9.271,9,9,0,0,1,3.238-2.1c.531-.209,1.089-.386,1.565.075a2,2,0,0,1,.72,1.864c-.23,1.048-.173,2.116-.335,3.167a2.723,2.723,0,0,0,.188,1.438,4.11,4.11,0,0,0,1.926-3.683,17.8,17.8,0,0,0-1.513-7.265,5.551,5.551,0,0,1-.291-4.824,2.458,2.458,0,0,0,.08-.964c0-.142-.039-.327-.224-.25-.725.3-.488-.344-.431-.521a10.736,10.736,0,0,0,.246-3.1c.019-.84-.191-1.11-1.009-1.163a7.772,7.772,0,0,0-3.423.384,9.028,9.028,0,0,1-2.559.578c-.205.018-.463.005-.471.287-.006.232.232.25.406.3.066.021.129.055.2.073.214.058.488.007.564.308.033.129-.04.214-.143.285a.5.5,0,0,1-.64-.075c-.361-.287-.653-.318-.843.256-.355-.533-.262-1.164-.759-1.54-.164-.124.2-.312.261-.5.088-.285.161-.575.238-.855.081,0,.151-.01.165.01.541.857.552.874,1.406.281a3.674,3.674,0,0,1,2.155-.647,8.783,8.783,0,0,0,3.029-.252,1.737,1.737,0,0,1,1.467.262c.131.078.295.2.439.036s0-.306-.06-.448a2.542,2.542,0,0,0-2.34-1.371,23.037,23.037,0,0,0-2.822-.278,7.02,7.02,0,0,0-4.476,1.407C3377.56,1120.134,3377.009,1120.242,3376.559,1120.022Z" transform="translate(-3362.258 -1101.749)" fill="#d77760"/>
      <path id="Path_40" data-name="Path 40" d="M3390.161,1176a19.948,19.948,0,0,1,5.646,1.08,51.988,51.988,0,0,1,7.222,2.849,3.673,3.673,0,0,1,.433.223c.3.178.644.369.588.777-.059.433-.437.543-.811.642a4.342,4.342,0,0,1-1.98-.09c-2.153-.417-4.25-1.079-6.414-1.454-4.5-.779-8.956-.919-13.346.627a14.061,14.061,0,0,1-3.259.619c-.295.03-.715.177-.854-.235-.13-.383.183-.659.456-.863a13.232,13.232,0,0,1,3.021-1.693,36.737,36.737,0,0,1,6.983-2.255A9.519,9.519,0,0,1,3390.161,1176Z" transform="translate(-3362.699 -1117.497)" fill="#d77760"/>
      <path id="Path_41" data-name="Path 41" d="M3391.852,1113.936c-.015-.356-.021-.7.4-.861a.879.879,0,0,1,.989.318,2.488,2.488,0,0,0,.828.572,1.08,1.08,0,0,1,.588,1.429,1.061,1.061,0,0,1-1.359.611C3392.37,1115.8,3391.888,1115.113,3391.852,1113.936Z" transform="translate(-3366.365 -1101.57)" fill="#d77760"/>
      <path id="Path_42" data-name="Path 42" d="M3380.232,1112.831a.433.433,0,0,1-.442-.21c-.125-.243,0-.43.167-.615a1.926,1.926,0,0,1,1.316-.674c.406-.032.785.078.839.6s-.256.7-.688.758C3381.062,1112.743,3380.7,1112.777,3380.232,1112.831Z" transform="translate(-3363.302 -1101.142)" fill="#d77760"/>
    </g>
  </g>
</svg>
