<svg xmlns="http://www.w3.org/2000/svg" width="35.568" height="75" viewBox="0 0 35.568 75">
  <g id="spirometer" transform="translate(-2957.379 -851.413)">
    <g id="Group_13" data-name="Group 13" transform="translate(2957.379 851.413)">
      <path id="Path_71" data-name="Path 71" d="M2957.754,877.712a4.627,4.627,0,0,1-.286-1.829,25.423,25.423,0,0,1,3.44-15.576c2.642-4.287,6.218-7.442,11.268-8.519,5.61-1.2,10.4.523,14.484,4.424a2.009,2.009,0,0,1,.254.4,1.437,1.437,0,0,0,.1.713,23.5,23.5,0,0,1,.825,11,25.863,25.863,0,0,1-4.952,11.652.945.945,0,0,1-1.027.446,23.111,23.111,0,0,0-8.521.163c-3.017.6-6.03,1.2-9.107.531a11.065,11.065,0,0,1-4.706-1.814C2958.89,878.809,2958.476,878.091,2957.754,877.712Zm4.388-16.07c-.021,1.389,1.343,2.11,2.85,1.445a9,9,0,0,0,5.36-6.2,1.71,1.71,0,0,0-2.2-2.21c-2.026.474-3.346,1.9-4.583,3.414A6.266,6.266,0,0,0,2962.142,861.642Z" transform="translate(-2957.379 -851.413)" fill="#fe4d65"/>
      <path id="Path_72" data-name="Path 72" d="M2958.261,884.922c.723.379,1.136,1.1,1.77,1.592a11.07,11.07,0,0,0,4.706,1.814c3.077.67,6.089.072,9.107-.531a23.112,23.112,0,0,1,8.521-.163.945.945,0,0,0,1.027-.446,25.866,25.866,0,0,0,4.952-11.652,23.511,23.511,0,0,0-.825-11,1.443,1.443,0,0,1-.1-.713,18.614,18.614,0,0,1,5.1,8.688c2.807,9.395-.91,20.577-8.719,26.339a16.645,16.645,0,0,1-6.354,2.923,6.748,6.748,0,0,1-.8.082c-.011-.279.2-.423.355-.608.6-.72.377-1.379-.488-1.753a2.934,2.934,0,0,0-2.77.313c-.708.4-1.268.86-.889,1.8a.313.313,0,0,1-.134.42,15.136,15.136,0,0,1-6.531-2.885,21.708,21.708,0,0,1-7.6-12.31A5.8,5.8,0,0,1,2958.261,884.922Z" transform="translate(-2957.887 -858.623)" fill="#fe4460"/>
      <path id="Path_73" data-name="Path 73" d="M2999.136,968.99a20.686,20.686,0,0,0,.172,6.072,12.354,12.354,0,0,0,4.377,7.037,36.952,36.952,0,0,1,4.59,4.125,9.776,9.776,0,0,1,2.44,4.7,7.306,7.306,0,0,1-.216,3.214c-.088.329-.189.641-.628.59-.421-.049-.393-.384-.414-.676a22.634,22.634,0,0,0-.328-3.068,9.742,9.742,0,0,0-3.217-5.334c-1.117-.987-2.261-1.943-3.406-2.9-4.16-3.467-5.466-7.9-4.47-13.122.041-.213.07-.428.1-.641l.127-.025Z" transform="translate(-2980.824 -919.73)" fill="#9f5054"/>
      <path id="Path_74" data-name="Path 74" d="M2991.72,951.211a.313.313,0,0,0,.134-.42c-.379-.937.182-1.4.89-1.8a2.935,2.935,0,0,1,2.769-.313c.866.374,1.089,1.034.488,1.753-.153.185-.366.329-.354.608-.393.114-.586.305-.344.732.29.51.552,1.035.826,1.553a22.926,22.926,0,0,0-5.187.314A5.006,5.006,0,0,1,2991.72,951.211Z" transform="translate(-2976.885 -907.814)" fill="#fe2c44"/>
      <path id="Path_75" data-name="Path 75" d="M2989.767,960.384a22.926,22.926,0,0,1,5.187-.315,13.482,13.482,0,0,1,1.64.682c1.1.63,1.093,1.506.024,2.178a10,10,0,0,1-2.6.887l-.867-.031c.582-.38,1.3-.3,1.921-.574.469-.209.951-.45.98-.959.026-.464-.462-.708-.868-.858a6.238,6.238,0,0,0-4.5.077c-.531.2-.593.577-.227,1.021a2.7,2.7,0,0,0,1.713.986c.209.033.45-.016.515.277a4.458,4.458,0,0,1-2.857-.934C2988.627,961.886,2988.623,961.382,2989.767,960.384Z" transform="translate(-2975.71 -914.556)" fill="#fe4d65"/>
      <path id="Path_76" data-name="Path 76" d="M2994.507,965.079c-.064-.293-.306-.244-.515-.277a2.7,2.7,0,0,1-1.714-.986c-.366-.444-.3-.821.228-1.021a6.237,6.237,0,0,1,4.5-.077c.406.151.894.395.868.859-.029.508-.511.75-.98.959-.621.277-1.339.193-1.921.574l-.127.025Z" transform="translate(-2977.528 -915.88)" fill="#fe2c44"/>
      <path id="Path_77" data-name="Path 77" d="M2968.751,866.079a6.266,6.266,0,0,1,1.429-3.548c1.238-1.519,2.557-2.94,4.584-3.414a1.709,1.709,0,0,1,2.2,2.21,9,9,0,0,1-5.359,6.2C2970.093,868.189,2968.73,867.468,2968.751,866.079Z" transform="translate(-2963.988 -855.85)" fill="#fe6c7a"/>
    </g>
  </g>
</svg>
