<svg xmlns="http://www.w3.org/2000/svg" width="64" height="63.98" viewBox="0 0 64 63.98">
  <g id="temperature" transform="translate(-3071.273 -833.435)">
    <g id="Group_12" data-name="Group 12" transform="translate(3071.273 833.435)">
      <path id="Path_59" data-name="Path 59" d="M3078.992,894.534a8.477,8.477,0,0,1,1.5-2.051c1.959-2.485,3.972-4.927,5.928-7.414a41.781,41.781,0,0,0,3.355-4.694,29.263,29.263,0,0,0,1.835-4.308,18.673,18.673,0,0,1,4.221-6.536q12.464-12.493,24.954-24.958c.175-.176.308-.429.611-.431a3.71,3.71,0,0,1,.346.275q5.709,5.7,11.413,11.415a3.224,3.224,0,0,1,.237.3c.007.278-.218.407-.379.568q-12.593,12.595-25.2,25.175a16.6,16.6,0,0,1-6.6,4.116,26.041,26.041,0,0,0-8.4,4.843c-3.017,2.458-6.069,4.872-9.111,7.3a1.391,1.391,0,0,1-.708.412A55.664,55.664,0,0,1,3078.992,894.534Zm42.44-32.235a1.436,1.436,0,0,0-.445-1.155c-1.529-1.539-3.046-3.088-4.606-4.594a1.607,1.607,0,0,0-2.364.065q-7.546,7.53-15.077,15.075a1.607,1.607,0,0,0-.005,2.409q2.237,2.271,4.51,4.508a1.607,1.607,0,0,0,2.409-.017q7.547-7.529,15.081-15.071A1.531,1.531,0,0,0,3121.432,862.3Zm4-7.359a2.8,2.8,0,1,0-2.846,2.77A2.755,2.755,0,0,0,3125.428,854.939Z" transform="translate(-3074.977 -838.574)" fill="#cfd8db"/>
      <path id="Path_60" data-name="Path 60" d="M3172.526,850.99a3.175,3.175,0,0,0-.237-.3q-5.7-5.71-11.413-11.415a3.729,3.729,0,0,0-.346-.275c0-.043-.009-.1.015-.125,1.757-1.739,3.243-3.8,5.639-4.784a8.6,8.6,0,0,1,9.709,13.678c-.977,1.081-2.05,2.075-3.079,3.11A.342.342,0,0,1,3172.526,850.99Z" transform="translate(-3114.107 -833.435)" fill="#5e798b"/>
      <path id="Path_61" data-name="Path 61" d="M3075.288,941.028a55.776,55.776,0,0,0,4.008,4.008c-.037.075-.053.176-.113.221a28.2,28.2,0,0,1-5.266,3.422,3.38,3.38,0,0,1-1.548.367,1.048,1.048,0,0,1-1.092-1.093,3.78,3.78,0,0,1,.526-1.9,31.164,31.164,0,0,1,3.265-4.916C3075.112,941.082,3075.213,941.065,3075.288,941.028Z" transform="translate(-3071.272 -885.068)" fill="#5e798b"/>
      <path id="Path_62" data-name="Path 62" d="M3139.333,873.3a1.53,1.53,0,0,1-.5,1.22q-7.54,7.536-15.081,15.071a1.607,1.607,0,0,1-2.409.017q-2.273-2.236-4.51-4.508a1.607,1.607,0,0,1,.005-2.409q7.53-7.546,15.078-15.075a1.607,1.607,0,0,1,2.364-.065c1.56,1.506,3.078,3.056,4.606,4.594A1.435,1.435,0,0,1,3139.333,873.3Zm-12.457,10.2a.965.965,0,0,0,.8-.259,14.821,14.821,0,0,0,1.4-1.408,1.3,1.3,0,0,0-.12-1.809c-.419-.459-.886-.873-1.305-1.33-.232-.252-.384-.244-.615,0-.53.56-1.107,1.076-1.625,1.647-.3.335-.49.2-.706-.058s-.652-.45-.205-.875c.481-.458.922-.959,1.419-1.4.351-.31.117-.482-.1-.64s-.316-.665-.732-.225c-.516.545-1.073,1.05-1.586,1.6a1.365,1.365,0,0,0,.033,2.055c.746.769,1.513,1.518,2.273,2.273A1.308,1.308,0,0,0,3126.876,883.5Zm3.849-11.354a1.3,1.3,0,0,0-1.049.418c-.348.35-.7.693-1.04,1.054a1.375,1.375,0,0,0,.011,2.061q1.114,1.162,2.277,2.277a1.4,1.4,0,0,0,2.071.014c.349-.317.68-.656,1-1a1.424,1.424,0,0,0-.013-2.167c-.715-.742-1.454-1.461-2.183-2.19A1.366,1.366,0,0,0,3130.725,872.145ZM3118.953,883.3a3.774,3.774,0,0,1,.369.393c.316.451.581.4.922,0a15.112,15.112,0,0,1,1.27-1.279c.506-.471.61.194.887.351s.259.356.01.584c-.443.4-.839.861-1.285,1.263-.415.373.02.509.183.679s.31.587.677.171c.383-.434.841-.8,1.214-1.243.331-.391.523-.176.75.078s.632.443.16.86c-.5.439-.938.943-1.418,1.4-.4.382.05.513.214.689s.282.56.636.186c.546-.577,1.139-1.11,1.667-1.7a1.343,1.343,0,0,0-.008-1.873q-1.214-1.287-2.518-2.488a1.285,1.285,0,0,0-1.811.02C3120.214,882,3119.594,882.655,3118.953,883.3Zm16.688-8.49c.7-.012,1.009-.559,1.451-.913.4-.323.179-.515-.077-.74-.237-.208-.418-.605-.795-.137-.146.181-.337.555-.57.405a3.36,3.36,0,0,1-1.041-1.025c-.173-.286.323-.423.462-.668.072-.126.333-.213.109-.4-.249-.21-.4-.613-.759-.6s-1.192,1.245-1.176,1.644A4.721,4.721,0,0,0,3135.641,874.807Zm-5.251,3.911a.63.63,0,0,0-.661.689.681.681,0,1,0,.661-.689Z" transform="translate(-3092.878 -849.571)" fill="#029ed5"/>
      <path id="Path_63" data-name="Path 63" d="M3163.108,862.29a2.8,2.8,0,1,1-2.785-2.829A2.764,2.764,0,0,1,3163.108,862.29Z" transform="translate(-3112.658 -845.925)" fill="#fe2727"/>
      <path id="Path_64" data-name="Path 64" d="M3133.112,892.643a1.308,1.308,0,0,1-1.067-.431c-.76-.756-1.526-1.5-2.273-2.273a1.365,1.365,0,0,1-.033-2.055c.513-.547,1.07-1.052,1.586-1.6.417-.44.526.073.732.225s.45.33.1.64c-.5.439-.937.94-1.419,1.4-.446.425-.008.617.205.875s.4.393.706.058c.518-.571,1.095-1.087,1.625-1.647.231-.244.383-.253.615,0,.42.458.887.872,1.305,1.33a1.3,1.3,0,0,1,.12,1.809,14.821,14.821,0,0,1-1.4,1.408A.965.965,0,0,1,3133.112,892.643Zm1.264-2.47c0-.2-.742-.93-.83-.849-.44.4-.856.832-1.273,1.259-.024.025,0,.117.024.17a.742.742,0,0,0,1.333.246c.182-.182.369-.358.543-.546A2.408,2.408,0,0,0,3134.376,890.173Z" transform="translate(-3099.114 -858.714)" fill="#f6fafc"/>
      <path id="Path_65" data-name="Path 65" d="M3141.688,876.834a1.366,1.366,0,0,1,1.077.465c.728.729,1.467,1.448,2.182,2.19a1.424,1.424,0,0,1,.013,2.167c-.322.345-.653.684-1,1a1.4,1.4,0,0,1-2.071-.013q-1.163-1.114-2.278-2.277a1.375,1.375,0,0,1-.011-2.061c.336-.361.692-.7,1.04-1.054A1.3,1.3,0,0,1,3141.688,876.834Zm-.177,1.062a7.819,7.819,0,0,1-.781.926c-.39.344-.448.6-.018.961s.8.779,1.189,1.173c1.068,1.071,1.06,1.065,2.084-.026.239-.254.289-.424.017-.685-.679-.653-1.334-1.332-2-2A1.187,1.187,0,0,0,3141.511,877.9Z" transform="translate(-3103.842 -854.26)" fill="#f6fafc"/>
      <path id="Path_66" data-name="Path 66" d="M3121.406,896.163c.641-.642,1.261-1.3,1.918-1.91a1.285,1.285,0,0,1,1.811-.02q1.3,1.2,2.517,2.488a1.342,1.342,0,0,1,.008,1.873c-.528.592-1.12,1.126-1.666,1.7-.354.373-.484-.024-.635-.186s-.612-.307-.214-.689c.48-.461.921-.964,1.418-1.4.472-.417.068-.606-.16-.86s-.42-.469-.75-.078c-.373.441-.831.809-1.214,1.243-.368.416-.511,0-.677-.171s-.6-.305-.183-.679c.446-.4.841-.859,1.285-1.263.249-.227.281-.419-.01-.584s-.381-.822-.887-.351a15.106,15.106,0,0,0-1.27,1.279c-.341.4-.606.453-.922,0A3.791,3.791,0,0,0,3121.406,896.163Z" transform="translate(-3095.331 -862.437)" fill="#f6fafc"/>
      <path id="Path_67" data-name="Path 67" d="M3151.282,878.192a4.721,4.721,0,0,1-2.4-2.435c-.016-.4.806-1.628,1.176-1.644s.51.387.759.6c.225.19-.037.276-.109.4-.139.245-.635.382-.462.668a3.36,3.36,0,0,0,1.041,1.025c.232.15.424-.224.57-.405.377-.468.558-.07.795.137.256.225.479.417.077.74C3152.291,877.633,3151.983,878.18,3151.282,878.192Z" transform="translate(-3108.519 -852.956)" fill="#f6fafc"/>
      <path id="Path_68" data-name="Path 68" d="M3142.785,889.475a.687.687,0,1,1-.662.689A.63.63,0,0,1,3142.785,889.475Z" transform="translate(-3105.273 -860.328)" fill="#f6fafc"/>
      <path id="Path_69" data-name="Path 69" d="M3137.12,893.13a2.408,2.408,0,0,1-.2.279c-.175.188-.361.365-.543.546a.742.742,0,0,1-1.333-.246c-.022-.053-.048-.144-.024-.17.417-.427.833-.856,1.273-1.259C3136.378,892.2,3137.116,892.926,3137.12,893.13Z" transform="translate(-3101.859 -861.671)" fill="#029ed5"/>
      <path id="Path_70" data-name="Path 70" d="M3142.686,878.878a1.185,1.185,0,0,1,.488.352c.668.665,1.324,1.344,2,2,.272.262.222.432-.017.685-1.024,1.09-1.016,1.1-2.084.025-.394-.394-.764-.817-1.189-1.173s-.373-.616.018-.961A7.8,7.8,0,0,0,3142.686,878.878Z" transform="translate(-3105.016 -855.243)" fill="#029ed5"/>
    </g>
  </g>
</svg>
